<svg version="1.1" xmlns="http://www.w3.org/2000/svg" viewBox="0 0 982.3939963446724 750.6666649712456" width="982.3939963446724" height="750.6666649712456">
  <!-- svg-source:excalidraw -->
  
  <defs>
    <style class="style-fonts">
      @font-face {
        font-family: "Virgil";
        src: url("https://excalidraw.com/Virgil.woff2");
      }
      @font-face {
        font-family: "Cascadia";
        src: url("https://excalidraw.com/Cascadia.woff2");
      }
      @font-face {
        font-family: "Assistant";
        src: url("https://excalidraw.com/Assistant-Regular.woff2");
      }
    </style>
    
  </defs>
  <g stroke-linecap="round" transform="translate(10 192.2222476535373) rotate(0 194.22220865885413 169.7777981228299)"><path d="M7.86 8.16 C7.86 8.16, 7.86 8.16, 7.86 8.16 M7.86 8.16 C7.86 8.16, 7.86 8.16, 7.86 8.16 M2.35 20.59 C6.05 16.34, 9.75 12.09, 18.1 2.48 M2.35 20.59 C6.73 15.56, 11.1 10.53, 18.1 2.48 M1.43 27.75 C10.4 17.43, 19.37 7.12, 25.05 0.58 M1.43 27.75 C8.12 20.06, 14.81 12.36, 25.05 0.58 M1.17 34.14 C9.54 24.52, 17.9 14.9, 30.7 0.18 M1.17 34.14 C9.71 24.33, 18.24 14.51, 30.7 0.18 M0.91 40.54 C10.77 29.2, 20.64 17.85, 36.34 -0.21 M0.91 40.54 C10.83 29.13, 20.76 17.71, 36.34 -0.21 M1.31 46.19 C9.5 36.76, 17.7 27.33, 41.33 0.15 M1.31 46.19 C16.83 28.33, 32.35 10.48, 41.33 0.15 M1.04 52.58 C11.41 40.65, 21.79 28.72, 46.97 -0.25 M1.04 52.58 C11.4 40.68, 21.75 28.77, 46.97 -0.25 M0.78 58.98 C18.35 38.78, 35.91 18.57, 51.96 0.11 M0.78 58.98 C17.26 40.03, 33.73 21.08, 51.96 0.11 M1.18 64.62 C13.22 50.77, 25.26 36.92, 57.6 -0.28 M1.18 64.62 C15.67 47.96, 30.15 31.29, 57.6 -0.28 M0.92 71.02 C17.12 52.38, 33.32 33.74, 62.59 0.08 M0.92 71.02 C19.05 50.16, 37.18 29.31, 62.59 0.08 M1.31 76.67 C21.4 53.56, 41.48 30.46, 67.57 0.44 M1.31 76.67 C22.3 52.52, 43.28 28.38, 67.57 0.44 M1.05 83.06 C18.93 62.49, 36.82 41.92, 73.22 0.04 M1.05 83.06 C19.91 61.36, 38.78 39.66, 73.22 0.04 M0.79 89.46 C26.1 60.34, 51.41 31.22, 78.2 0.41 M0.79 89.46 C20.32 66.99, 39.86 44.51, 78.2 0.41 M1.18 95.1 C17.98 75.78, 34.79 56.45, 83.85 0.01 M1.18 95.1 C20.7 72.66, 40.21 50.21, 83.85 0.01 M0.92 101.5 C34.98 62.32, 69.05 23.13, 88.83 0.37 M0.92 101.5 C28.66 69.59, 56.39 37.69, 88.83 0.37 M0.66 107.9 C33.89 69.67, 67.12 31.44, 94.48 -0.02 M0.66 107.9 C36.75 66.39, 72.83 24.87, 94.48 -0.02 M1.05 113.54 C36.23 73.08, 71.4 32.62, 99.46 0.34 M1.05 113.54 C26.91 83.8, 52.76 54.06, 99.46 0.34 M0.79 119.94 C36.9 78.41, 73 36.87, 105.11 -0.06 M0.79 119.94 C35.06 80.51, 69.34 41.09, 105.11 -0.06 M1.19 125.58 C42.56 77.99, 83.93 30.39, 110.09 0.3 M1.19 125.58 C28.97 93.62, 56.76 61.65, 110.09 0.3 M0.93 131.98 C40.5 86.46, 80.08 40.93, 115.74 -0.09 M0.93 131.98 C28.92 99.78, 56.91 67.58, 115.74 -0.09 M0.66 138.38 C44.88 87.51, 89.1 36.65, 120.72 0.27 M0.66 138.38 C43.73 88.84, 86.8 39.29, 120.72 0.27 M1.06 144.02 C43.17 95.58, 85.27 47.14, 126.37 -0.13 M1.06 144.02 C46.32 91.96, 91.57 39.9, 126.37 -0.13 M0.8 150.42 C40.79 104.41, 80.79 58.4, 131.35 0.23 M0.8 150.42 C32.66 113.77, 64.51 77.12, 131.35 0.23 M1.19 156.06 C31.95 120.68, 62.71 85.3, 137 -0.16 M1.19 156.06 C37.32 114.5, 73.45 72.94, 137 -0.16 M0.93 162.46 C50.03 105.98, 99.12 49.5, 141.98 0.2 M0.93 162.46 C41.32 116, 81.7 69.55, 141.98 0.2 M0.67 168.86 C51.04 110.92, 101.41 52.97, 147.63 -0.2 M0.67 168.86 C59.24 101.48, 117.81 34.1, 147.63 -0.2 M1.06 174.5 C49.23 119.1, 97.39 63.69, 152.61 0.16 M1.06 174.5 C41.31 128.21, 81.55 81.91, 152.61 0.16 M0.8 180.9 C53.05 120.8, 105.29 60.7, 158.26 -0.23 M0.8 180.9 C56.46 116.87, 112.12 52.84, 158.26 -0.23 M0.54 187.3 C34.74 147.95, 68.94 108.61, 163.24 0.13 M0.54 187.3 C43.88 137.44, 87.22 87.58, 163.24 0.13 M0.94 192.94 C44.77 142.52, 88.6 92.1, 168.89 -0.27 M0.94 192.94 C64.82 119.45, 128.7 45.97, 168.89 -0.27 M0.67 199.34 C50.94 141.51, 101.21 83.68, 173.87 0.09 M0.67 199.34 C66.16 124, 131.65 48.66, 173.87 0.09 M1.07 204.98 C57.59 139.97, 114.1 74.95, 178.86 0.45 M1.07 204.98 C51.44 147.04, 101.81 89.1, 178.86 0.45 M0.81 211.38 C73.03 128.29, 145.26 45.2, 184.5 0.06 M0.81 211.38 C73.33 127.95, 145.86 44.52, 184.5 0.06 M0.55 217.78 C59.2 150.3, 117.86 82.82, 189.49 0.42 M0.55 217.78 C61.24 147.96, 121.93 78.14, 189.49 0.42 M0.94 223.42 C44.56 173.24, 88.19 123.06, 195.13 0.03 M0.94 223.42 C62.14 153.02, 123.34 82.62, 195.13 0.03 M0.68 229.82 C73.86 145.63, 147.05 61.44, 200.12 0.39 M0.68 229.82 C62.03 159.24, 123.38 88.66, 200.12 0.39 M1.07 235.46 C54.39 174.12, 107.71 112.79, 205.76 -0.01 M1.07 235.46 C50.71 178.36, 100.35 121.26, 205.76 -0.01 M0.81 241.86 C50.34 184.89, 99.86 127.91, 210.75 0.35 M0.81 241.86 C66.06 166.8, 131.3 91.75, 210.75 0.35 M0.55 248.26 C53.86 186.94, 107.16 125.61, 216.39 -0.04 M0.55 248.26 C62.06 177.49, 123.58 106.73, 216.39 -0.04 M0.95 253.9 C86.08 155.96, 171.22 58.03, 221.38 0.32 M0.95 253.9 C78.89 164.23, 156.84 74.56, 221.38 0.32 M0.68 260.3 C68.72 182.03, 136.75 103.77, 227.02 -0.08 M0.68 260.3 C58.48 193.81, 116.28 127.31, 227.02 -0.08 M0.42 266.69 C71.53 184.89, 142.64 103.09, 232.01 0.28 M0.42 266.69 C73.07 183.12, 145.73 99.54, 232.01 0.28 M0.82 272.34 C50.13 215.61, 99.44 158.89, 237.65 -0.11 M0.82 272.34 C88.7 171.23, 176.59 70.13, 237.65 -0.11 M0.56 278.74 C50.89 220.83, 101.22 162.93, 242.64 0.25 M0.56 278.74 C54.64 216.52, 108.72 154.31, 242.64 0.25 M0.95 284.38 C81.82 191.35, 162.69 98.32, 248.28 -0.15 M0.95 284.38 C88.58 183.57, 176.21 82.76, 248.28 -0.15 M0.69 290.78 C81.17 198.2, 161.65 105.61, 253.27 0.21 M0.69 290.78 C94.05 183.37, 187.42 75.97, 253.27 0.21 M0.43 297.17 C73.92 212.63, 147.42 128.08, 258.91 -0.18 M0.43 297.17 C86.2 198.5, 171.97 99.83, 258.91 -0.18 M0.82 302.82 C103.24 185, 205.65 67.19, 263.9 0.18 M0.82 302.82 C104.51 183.54, 208.2 64.25, 263.9 0.18 M0.56 309.22 C75.36 223.16, 150.16 137.11, 269.54 -0.22 M0.56 309.22 C90.72 205.5, 180.88 101.78, 269.54 -0.22 M0.95 314.86 C107.75 192.01, 214.54 69.16, 274.53 0.14 M0.95 314.86 C108.54 191.1, 216.12 67.34, 274.53 0.14 M2.01 319.75 C106.69 199.32, 211.37 78.9, 280.17 -0.25 M2.01 319.75 C57.81 255.56, 113.61 191.37, 280.17 -0.25 M3.71 323.88 C63.53 255.06, 123.36 186.24, 285.16 0.11 M3.71 323.88 C65.07 253.3, 126.42 182.72, 285.16 0.11 M5.42 328.01 C67.47 256.63, 129.53 185.24, 290.8 -0.28 M5.42 328.01 C82.17 239.72, 158.92 151.43, 290.8 -0.28 M7.78 331.39 C113.47 209.81, 219.15 88.24, 295.79 0.08 M7.78 331.39 C115.54 207.43, 223.29 83.48, 295.79 0.08 M10.8 334.02 C100.74 230.55, 190.68 127.09, 300.78 0.44 M10.8 334.02 C93.68 238.68, 176.55 143.34, 300.78 0.44 M14.48 335.89 C97.66 240.19, 180.84 144.5, 306.42 0.04 M14.48 335.89 C108.51 227.71, 202.55 119.54, 306.42 0.04 M18.15 337.76 C115.95 225.25, 213.76 112.74, 311.41 0.4 M18.15 337.76 C106.55 236.06, 194.96 134.36, 311.41 0.4 M22.48 338.87 C86.75 264.94, 151.01 191.02, 317.05 0.01 M22.48 338.87 C133.53 211.12, 244.58 83.38, 317.05 0.01 M27.47 339.23 C97.23 258.98, 166.99 178.73, 322.04 0.37 M27.47 339.23 C136.71 213.56, 245.95 87.9, 322.04 0.37 M32.46 339.59 C132.43 224.58, 232.41 109.57, 327.68 -0.03 M32.46 339.59 C94.04 268.75, 155.63 197.9, 327.68 -0.03 M37.44 339.95 C137.74 224.57, 238.05 109.18, 332.67 0.33 M37.44 339.95 C112.32 253.82, 187.2 167.68, 332.67 0.33 M43.09 339.56 C113.56 258.49, 184.03 177.42, 338.31 -0.06 M43.09 339.56 C143.89 223.6, 244.69 107.64, 338.31 -0.06 M48.07 339.92 C116.64 261.04, 185.21 182.16, 343.3 0.3 M48.07 339.92 C140.81 233.24, 233.54 126.56, 343.3 0.3 M53.72 339.52 C121.89 261.09, 190.07 182.66, 348.94 -0.1 M53.72 339.52 C128.9 253.03, 204.08 166.55, 348.94 -0.1 M58.7 339.88 C139.78 246.61, 220.87 153.33, 353.93 0.26 M58.7 339.88 C124.05 264.71, 189.4 189.53, 353.93 0.26 M64.35 339.49 C137.49 255.35, 210.63 171.21, 358.92 0.62 M64.35 339.49 C147.46 243.88, 230.56 148.27, 358.92 0.62 M69.33 339.85 C156.96 239.04, 244.59 138.24, 363.9 0.98 M69.33 339.85 C142.69 255.46, 216.04 171.08, 363.9 0.98 M74.98 339.45 C176.09 223.13, 277.2 106.82, 368.89 1.34 M74.98 339.45 C166.8 233.82, 258.62 128.19, 368.89 1.34 M79.96 339.81 C168.23 238.27, 256.5 136.73, 372.57 3.21 M79.96 339.81 C189.84 213.41, 299.72 87.01, 372.57 3.21 M84.95 340.17 C199.04 208.92, 313.13 77.68, 376.24 5.08 M84.95 340.17 C169.06 243.42, 253.16 146.67, 376.24 5.08 M90.59 339.78 C194.06 220.75, 297.53 101.72, 379.26 7.71 M90.59 339.78 C201.43 212.28, 312.26 84.78, 379.26 7.71 M95.58 340.14 C206 213.12, 316.41 86.1, 382.28 10.33 M95.58 340.14 C184.18 238.22, 272.77 136.3, 382.28 10.33 M101.22 339.74 C188.89 238.9, 276.55 138.05, 384.64 13.71 M101.22 339.74 C203.84 221.7, 306.45 103.65, 384.64 13.71 M106.21 340.1 C201.06 231, 295.9 121.89, 386.35 17.84 M106.21 340.1 C197.5 235.09, 288.79 130.07, 386.35 17.84 M111.85 339.71 C185.36 255.15, 258.86 170.59, 388.05 21.98 M111.85 339.71 C167.73 275.43, 223.61 211.15, 388.05 21.98 M116.84 340.07 C221.81 219.31, 326.79 98.55, 388.45 27.62 M116.84 340.07 C183.82 263.01, 250.81 185.96, 388.45 27.62 M122.48 339.68 C205.33 244.37, 288.18 149.06, 388.84 33.26 M122.48 339.68 C202.88 247.18, 283.28 154.69, 388.84 33.26 M127.47 340.04 C201.55 254.82, 275.63 169.6, 388.58 39.66 M127.47 340.04 C188.37 269.98, 249.26 199.93, 388.58 39.66 M133.11 339.64 C234.31 223.23, 335.5 106.82, 388.32 46.06 M133.11 339.64 C200.11 262.58, 267.1 185.51, 388.32 46.06 M138.1 340 C214.62 251.98, 291.14 163.95, 388.71 51.7 M138.1 340 C188.82 281.66, 239.53 223.32, 388.71 51.7 M143.74 339.61 C203.78 270.54, 263.82 201.48, 388.45 58.1 M143.74 339.61 C239.37 229.6, 335 119.59, 388.45 58.1 M148.73 339.97 C232 244.17, 315.27 148.38, 388.85 63.74 M148.73 339.97 C226.87 250.08, 305 160.2, 388.85 63.74 M154.37 339.57 C213.06 272.06, 271.76 204.54, 388.59 70.14 M154.37 339.57 C247.57 232.36, 340.77 125.15, 388.59 70.14 M159.36 339.93 C210.62 280.97, 261.87 222, 388.32 76.54 M159.36 339.93 C234.55 253.43, 309.74 166.93, 388.32 76.54 M165 339.54 C249.05 242.86, 333.09 146.17, 388.72 82.18 M165 339.54 C232.07 262.39, 299.13 185.24, 388.72 82.18 M169.99 339.9 C251.39 246.26, 332.79 152.62, 388.46 88.58 M169.99 339.9 C255.65 241.36, 341.31 142.82, 388.46 88.58 M175.63 339.5 C229.86 277.13, 284.08 214.75, 388.85 94.22 M175.63 339.5 C243.21 261.76, 310.79 184.02, 388.85 94.22 M180.62 339.86 C253.27 256.29, 325.92 172.71, 388.59 100.62 M180.62 339.86 C233 279.6, 285.39 219.34, 388.59 100.62 M186.26 339.47 C244.97 271.94, 303.67 204.4, 388.33 107.02 M186.26 339.47 C261.98 252.37, 337.69 165.27, 388.33 107.02 M191.25 339.83 C256.57 264.68, 321.89 189.54, 388.72 112.66 M191.25 339.83 C250.08 272.16, 308.91 204.48, 388.72 112.66 M196.89 339.43 C265.6 260.39, 334.31 181.36, 388.46 119.06 M196.89 339.43 C235.78 294.7, 274.67 249.96, 388.46 119.06 M201.88 339.79 C241.88 293.77, 281.89 247.76, 388.86 124.7 M201.88 339.79 C253.29 280.66, 304.7 221.52, 388.86 124.7 M206.87 340.15 C262 276.73, 317.13 213.31, 388.6 131.1 M206.87 340.15 C249.84 290.72, 292.82 241.28, 388.6 131.1 M212.51 339.76 C268.09 275.82, 323.68 211.88, 388.33 137.5 M212.51 339.76 C279.76 262.39, 347.02 185.03, 388.33 137.5 M217.5 340.12 C258.53 292.92, 299.56 245.72, 388.73 143.14 M217.5 340.12 C271.35 278.17, 325.19 216.23, 388.73 143.14 M223.14 339.72 C268.6 287.43, 314.06 235.14, 388.47 149.54 M223.14 339.72 C285.1 268.45, 347.05 197.18, 388.47 149.54 M228.13 340.08 C268.74 293.36, 309.36 246.64, 388.86 155.18 M228.13 340.08 C289.37 269.64, 350.61 199.19, 388.86 155.18 M233.77 339.69 C287.71 277.65, 341.64 215.6, 388.6 161.58 M233.77 339.69 C274.11 293.28, 314.45 246.88, 388.6 161.58 M238.76 340.05 C283.36 288.75, 327.96 237.44, 388.34 167.98 M238.76 340.05 C296.31 273.84, 353.87 207.63, 388.34 167.98 M244.4 339.66 C289.8 287.43, 335.21 235.2, 388.73 173.62 M244.4 339.66 C273.76 305.88, 303.13 272.1, 388.73 173.62 M249.39 340.02 C291.38 291.71, 333.38 243.4, 388.47 180.02 M249.39 340.02 C302.12 279.35, 354.86 218.69, 388.47 180.02 M255.03 339.62 C304.84 282.32, 354.65 225.02, 388.87 185.66 M255.03 339.62 C284.7 305.49, 314.37 271.36, 388.87 185.66 M260.02 339.98 C293.48 301.48, 326.95 262.99, 388.61 192.06 M260.02 339.98 C288.6 307.1, 317.18 274.22, 388.61 192.06 M265.66 339.59 C295.11 305.71, 324.55 271.84, 388.34 198.46 M265.66 339.59 C301.01 298.92, 336.37 258.25, 388.34 198.46 M270.65 339.95 C310.75 293.81, 350.86 247.67, 388.74 204.1 M270.65 339.95 C303.34 302.34, 336.04 264.72, 388.74 204.1 M276.29 339.55 C305.16 306.35, 334.02 273.14, 388.48 210.5 M276.29 339.55 C302.15 309.8, 328.02 280.05, 388.48 210.5 M281.28 339.91 C321.58 293.55, 361.89 247.18, 388.22 216.89 M281.28 339.91 C314.47 301.73, 347.66 263.54, 388.22 216.89 M286.92 339.52 C315.75 306.35, 344.58 273.19, 388.61 222.54 M286.92 339.52 C310.42 312.49, 333.92 285.46, 388.61 222.54 M291.91 339.88 C328.48 297.81, 365.05 255.74, 388.35 228.94 M291.91 339.88 C330 296.05, 368.1 252.23, 388.35 228.94 M297.55 339.48 C333.89 297.68, 370.23 255.88, 388.74 234.58 M297.55 339.48 C327.35 305.2, 357.15 270.92, 388.74 234.58 M302.54 339.84 C321.79 317.69, 341.05 295.54, 388.48 240.98 M302.54 339.84 C320.37 319.33, 338.21 298.81, 388.48 240.98 M308.18 339.45 C324.38 320.82, 340.57 302.19, 388.22 247.37 M308.18 339.45 C332.94 310.97, 357.7 282.49, 388.22 247.37 M313.17 339.81 C340.27 308.64, 367.36 277.46, 388.62 253.02 M313.17 339.81 C338.03 311.21, 362.89 282.62, 388.62 253.02 M318.16 340.17 C340.3 314.7, 362.44 289.22, 388.35 259.42 M318.16 340.17 C333.95 322, 349.75 303.82, 388.35 259.42 M323.8 339.77 C343.46 317.16, 363.12 294.54, 388.75 265.06 M323.8 339.77 C346.34 313.84, 368.88 287.91, 388.75 265.06 M328.79 340.13 C345.42 321, 362.06 301.86, 388.49 271.46 M328.79 340.13 C345.21 321.25, 361.63 302.36, 388.49 271.46 M334.43 339.74 C352.88 318.51, 371.33 297.29, 388.23 277.85 M334.43 339.74 C353.32 318.01, 372.22 296.27, 388.23 277.85 M339.42 340.1 C351.86 325.78, 364.31 311.47, 388.62 283.5 M339.42 340.1 C354.92 322.27, 370.42 304.44, 388.62 283.5 M345.06 339.71 C355.4 327.81, 365.74 315.92, 388.36 289.89 M345.06 339.71 C355.34 327.88, 365.62 316.05, 388.36 289.89 M350.05 340.07 C362.42 325.83, 374.79 311.6, 388.75 295.54 M350.05 340.07 C363.8 324.24, 377.56 308.42, 388.75 295.54 M355.69 339.67 C366.16 327.63, 376.63 315.59, 388.49 301.94 M355.69 339.67 C362.45 331.9, 369.21 324.12, 388.49 301.94 M361.33 339.28 C371.82 327.21, 382.31 315.15, 388.89 307.58 M361.33 339.28 C368.53 330.99, 375.73 322.71, 388.89 307.58 M367.63 338.13 C375.43 329.16, 383.22 320.19, 387.97 314.73 M367.63 338.13 C372.96 332, 378.29 325.87, 387.97 314.73 M375.24 335.47 C378.29 331.97, 381.33 328.47, 387.05 321.88 M375.24 335.47 C378.22 332.04, 381.21 328.61, 387.05 321.88" stroke="#a5d8ff" stroke-width="0.5" fill="none"></path><path d="M32 0 C131.2 0, 230.4 0, 356.44 0 M356.44 0 C377.78 0, 388.44 10.67, 388.44 32 M388.44 32 C388.44 92.38, 388.44 152.77, 388.44 307.56 M388.44 307.56 C388.44 328.89, 377.78 339.56, 356.44 339.56 M356.44 339.56 C272.55 339.56, 188.65 339.56, 32 339.56 M32 339.56 C10.67 339.56, 0 328.89, 0 307.56 M0 307.56 C0 237.98, 0 168.4, 0 32 M0 32 C0 10.67, 10.67 0, 32 0" stroke="#1971c2" stroke-width="1.5" fill="none" stroke-dasharray="1.5 7"></path></g><g stroke-linecap="round" transform="translate(515.7778252495657 51.77779303656676) rotate(0 212.88889567057288 344.4444359673394)"><path d="M7.86 8.16 C7.86 8.16, 7.86 8.16, 7.86 8.16 M7.86 8.16 C7.86 8.16, 7.86 8.16, 7.86 8.16 M2.35 20.59 C8.58 13.43, 14.82 6.26, 18.1 2.48 M2.35 20.59 C6.62 15.68, 10.89 10.77, 18.1 2.48 M0.78 28.5 C10.19 17.68, 19.6 6.85, 25.05 0.58 M0.78 28.5 C6.96 21.38, 13.15 14.27, 25.05 0.58 M0.52 34.9 C11.39 22.39, 22.27 9.88, 30.7 0.18 M0.52 34.9 C10.74 23.13, 20.97 11.37, 30.7 0.18 M0.26 41.3 C12.23 27.52, 24.2 13.75, 36.34 -0.21 M0.26 41.3 C11.76 28.06, 23.26 14.83, 36.34 -0.21 M-0.01 47.7 C10.91 35.14, 21.82 22.58, 41.33 0.15 M-0.01 47.7 C15.14 30.27, 30.28 12.85, 41.33 0.15 M0.39 53.34 C14.25 37.39, 28.11 21.45, 46.97 -0.25 M0.39 53.34 C11.82 40.19, 23.25 27.04, 46.97 -0.25 M0.13 59.74 C14.92 42.72, 29.71 25.7, 51.96 0.11 M0.13 59.74 C11.89 46.2, 23.66 32.66, 51.96 0.11 M0.52 65.38 C13.54 50.4, 26.56 35.43, 57.6 -0.28 M0.52 65.38 C17.97 45.3, 35.42 25.23, 57.6 -0.28 M0.26 71.78 C13.19 56.91, 26.12 42.03, 62.59 0.08 M0.26 71.78 C19.88 49.21, 39.49 26.65, 62.59 0.08 M0 78.17 C14.95 60.97, 29.91 43.77, 67.57 0.44 M0 78.17 C23.07 51.63, 46.15 25.08, 67.57 0.44 M0.39 83.82 C23.54 57.19, 46.69 30.56, 73.22 0.04 M0.39 83.82 C18.14 63.41, 35.88 43, 73.22 0.04 M0.13 90.22 C18.08 69.57, 36.02 48.93, 78.2 0.41 M0.13 90.22 C20.78 66.47, 41.42 42.72, 78.2 0.41 M0.53 95.86 C26.29 66.22, 52.05 36.59, 83.85 0.01 M0.53 95.86 C29.55 62.47, 58.57 29.09, 83.85 0.01 M0.26 102.26 C32.24 65.47, 64.22 28.68, 88.83 0.37 M0.26 102.26 C31.86 65.91, 63.45 29.57, 88.83 0.37 M0 108.65 C35.77 67.52, 71.53 26.38, 94.48 -0.02 M0 108.65 C36.23 66.98, 72.46 25.3, 94.48 -0.02 M0.4 114.3 C37.73 71.35, 75.06 28.4, 99.46 0.34 M0.4 114.3 C37.13 72.04, 73.86 29.79, 99.46 0.34 M0.14 120.69 C34.54 81.12, 68.95 41.54, 105.11 -0.06 M0.14 120.69 C23.69 93.6, 47.24 66.51, 105.11 -0.06 M0.53 126.34 C43.69 76.69, 86.85 27.03, 110.09 0.3 M0.53 126.34 C25.67 97.42, 50.81 68.5, 110.09 0.3 M0.27 132.74 C30.68 97.75, 61.09 62.77, 115.74 -0.09 M0.27 132.74 C42.57 84.08, 84.87 35.42, 115.74 -0.09 M0.01 139.13 C46.33 85.85, 92.64 32.57, 120.72 0.27 M0.01 139.13 C39.34 93.89, 78.67 48.64, 120.72 0.27 M0.4 144.78 C37.76 101.8, 75.12 58.83, 126.37 -0.13 M0.4 144.78 C28.76 112.15, 57.12 79.53, 126.37 -0.13 M0.14 151.17 C35.85 110.1, 71.56 69.02, 131.35 0.23 M0.14 151.17 C29.44 117.47, 58.73 83.77, 131.35 0.23 M0.54 156.82 C33.73 118.63, 66.93 80.44, 137 -0.16 M0.54 156.82 C32.85 119.64, 65.17 82.46, 137 -0.16 M0.27 163.22 C34.29 124.09, 68.3 84.96, 141.98 0.2 M0.27 163.22 C50.66 105.26, 101.04 47.3, 141.98 0.2 M0.01 169.61 C47.84 114.59, 95.67 59.57, 147.63 -0.2 M0.01 169.61 C52.83 108.85, 105.65 48.09, 147.63 -0.2 M0.41 175.26 C34.31 136.25, 68.22 97.25, 152.61 0.16 M0.41 175.26 C50.12 118.07, 99.83 60.88, 152.61 0.16 M0.15 181.65 C41.9 133.62, 83.66 85.59, 158.26 -0.23 M0.15 181.65 C57.82 115.31, 115.49 48.96, 158.26 -0.23 M0.54 187.3 C34.79 147.9, 69.03 108.51, 163.24 0.13 M0.54 187.3 C34.85 147.83, 69.15 108.37, 163.24 0.13 M0.28 193.69 C66.62 117.38, 132.96 41.06, 168.89 -0.27 M0.28 193.69 C60.08 124.9, 119.88 56.11, 168.89 -0.27 M0.02 200.09 C60.51 130.5, 121.01 60.91, 173.87 0.09 M0.02 200.09 C43.99 149.51, 87.96 98.92, 173.87 0.09 M0.41 205.74 C62.29 134.55, 124.17 63.37, 178.86 0.45 M0.41 205.74 C44.1 155.47, 87.79 105.21, 178.86 0.45 M0.15 212.13 C43.42 162.35, 86.7 112.57, 184.5 0.06 M0.15 212.13 C67.95 134.14, 135.76 56.14, 184.5 0.06 M0.55 217.78 C69.2 138.8, 137.84 59.83, 189.49 0.42 M0.55 217.78 C52.11 158.46, 103.67 99.14, 189.49 0.42 M0.28 224.17 C44.11 173.76, 87.94 123.34, 195.13 0.03 M0.28 224.17 C47.19 170.22, 94.09 116.26, 195.13 0.03 M0.02 230.57 C77.5 141.45, 154.97 52.32, 200.12 0.39 M0.02 230.57 C59.41 162.26, 118.79 93.94, 200.12 0.39 M0.42 236.22 C67.65 158.87, 134.89 81.53, 205.76 -0.01 M0.42 236.22 C47.09 182.52, 93.77 128.83, 205.76 -0.01 M0.16 242.61 C77.45 153.7, 154.74 64.78, 210.75 0.35 M0.16 242.61 C62.23 171.21, 124.3 99.81, 210.75 0.35 M-0.11 249.01 C66.09 172.86, 132.29 96.71, 216.39 -0.04 M-0.11 249.01 C54.77 185.89, 109.64 122.76, 216.39 -0.04 M0.29 254.65 C79.05 164.05, 157.81 73.44, 221.38 0.32 M0.29 254.65 C58.95 187.17, 117.61 119.69, 221.38 0.32 M0.03 261.05 C85.88 162.29, 171.73 63.53, 227.02 -0.08 M0.03 261.05 C71.62 178.7, 143.21 96.34, 227.02 -0.08 M0.42 266.69 C49.73 209.97, 99.04 153.24, 232.01 0.28 M0.42 266.69 C76.25 179.47, 152.07 92.24, 232.01 0.28 M0.16 273.09 C75.6 186.31, 151.04 99.53, 237.65 -0.11 M0.16 273.09 C90.32 169.38, 180.47 65.67, 237.65 -0.11 M-0.1 279.49 C72.68 195.76, 145.47 112.03, 242.64 0.25 M-0.1 279.49 C53.35 218, 106.8 156.52, 242.64 0.25 M0.29 285.13 C87.51 184.8, 174.73 84.46, 248.28 -0.15 M0.29 285.13 C70.47 204.4, 140.65 123.67, 248.28 -0.15 M0.03 291.53 C97.39 179.53, 194.75 67.54, 253.27 0.21 M0.03 291.53 C51.48 232.35, 102.92 173.17, 253.27 0.21 M0.43 297.17 C68.33 219.06, 136.24 140.94, 258.91 -0.18 M0.43 297.17 C60.57 227.99, 120.71 158.8, 258.91 -0.18 M0.17 303.57 C89.54 200.76, 178.92 97.94, 263.9 0.18 M0.17 303.57 C94.08 195.53, 188 87.49, 263.9 0.18 M-0.1 309.97 C77.45 220.76, 155 131.55, 269.54 -0.22 M-0.1 309.97 C82.45 215.02, 164.99 120.06, 269.54 -0.22 M0.3 315.61 C66.11 239.91, 131.92 164.2, 274.53 0.14 M0.3 315.61 C76.86 227.54, 153.41 139.47, 274.53 0.14 M0.04 322.01 C61.13 251.73, 122.23 181.45, 280.17 -0.25 M0.04 322.01 C98.4 208.86, 196.75 95.71, 280.17 -0.25 M0.43 327.65 C77.1 239.46, 153.77 151.26, 285.16 0.11 M0.43 327.65 C112.27 199, 224.11 70.34, 285.16 0.11 M0.17 334.05 C87.51 233.58, 174.86 133.1, 290.8 -0.28 M0.17 334.05 C83.21 238.52, 166.26 142.99, 290.8 -0.28 M-0.09 340.45 C62.91 267.97, 125.91 195.5, 295.79 0.08 M-0.09 340.45 C70.24 259.54, 140.58 178.63, 295.79 0.08 M0.3 346.09 C101.25 229.97, 202.2 113.84, 300.78 0.44 M0.3 346.09 C120.01 208.38, 239.72 70.68, 300.78 0.44 M0.04 352.49 C110.91 224.95, 221.79 97.4, 306.42 0.04 M0.04 352.49 C114.93 220.33, 229.82 88.16, 306.42 0.04 M0.44 358.13 C118.65 222.15, 236.85 86.17, 311.41 0.4 M0.44 358.13 C77.5 269.48, 154.56 180.83, 311.41 0.4 M0.18 364.53 C67.25 287.37, 134.33 210.2, 317.05 0.01 M0.18 364.53 C90.8 260.28, 181.42 156.03, 317.05 0.01 M-0.09 370.93 C78.34 280.71, 156.76 190.5, 322.04 0.37 M-0.09 370.93 C116.85 236.41, 233.79 101.89, 322.04 0.37 M0.31 376.57 C119.02 240.01, 237.74 103.44, 327.68 -0.03 M0.31 376.57 C89.49 273.98, 178.67 171.39, 327.68 -0.03 M0.05 382.97 C130.12 233.34, 260.2 83.7, 332.67 0.33 M0.05 382.97 C114.25 251.6, 228.45 120.22, 332.67 0.33 M0.44 388.61 C74.66 303.24, 148.87 217.87, 338.31 -0.06 M0.44 388.61 C120.8 250.15, 241.17 111.69, 338.31 -0.06 M0.18 395.01 C83.47 299.2, 166.75 203.39, 343.3 0.3 M0.18 395.01 C123.17 253.53, 246.15 112.05, 343.3 0.3 M-0.08 401.41 C101.98 284, 204.03 166.6, 348.94 -0.1 M-0.08 401.41 C132.47 248.92, 265.03 96.43, 348.94 -0.1 M0.31 407.05 C96.84 296.01, 193.36 184.97, 353.93 0.26 M0.31 407.05 C88.11 306.05, 175.91 205.05, 353.93 0.26 M0.05 413.45 C106.19 291.35, 212.33 169.25, 359.57 -0.13 M0.05 413.45 C109.95 287.02, 219.85 160.6, 359.57 -0.13 M0.45 419.09 C113.66 288.85, 226.88 158.62, 364.56 0.23 M0.45 419.09 C81.7 325.62, 162.95 232.16, 364.56 0.23 M0.18 425.49 C91.62 320.3, 183.06 215.11, 370.2 -0.17 M0.18 425.49 C117.43 290.62, 234.67 155.75, 370.2 -0.17 M-0.08 431.89 C90.17 328.07, 180.42 224.25, 375.19 0.19 M-0.08 431.89 C136.38 274.91, 272.83 117.94, 375.19 0.19 M0.32 437.53 C141.79 274.78, 283.27 112.03, 380.83 -0.2 M0.32 437.53 C120.77 298.97, 241.22 160.41, 380.83 -0.2 M0.06 443.93 C115.87 310.71, 231.67 177.48, 385.82 0.16 M0.06 443.93 C123.74 301.65, 247.42 159.37, 385.82 0.16 M0.45 449.57 C155.94 270.7, 311.43 91.83, 391.46 -0.24 M0.45 449.57 C89.73 346.87, 179.01 244.17, 391.46 -0.24 M0.19 455.97 C152.08 281.24, 303.96 106.52, 396.45 0.12 M0.19 455.97 C85.52 357.81, 170.85 259.65, 396.45 0.12 M-0.07 462.37 C103.43 343.3, 206.94 224.23, 401.44 0.48 M-0.07 462.37 C118.8 325.62, 237.67 188.88, 401.44 0.48 M0.32 468.01 C137.24 310.5, 274.16 152.99, 405.77 1.6 M0.32 468.01 C137.9 309.75, 275.47 151.49, 405.77 1.6 M0.06 474.41 C159.95 290.48, 319.84 106.55, 410.1 2.71 M0.06 474.41 C157.49 293.31, 314.92 112.21, 410.1 2.71 M0.46 480.05 C110.41 353.56, 220.36 227.08, 413.77 4.58 M0.46 480.05 C105.6 359.09, 210.75 238.14, 413.77 4.58 M0.19 486.45 C98.75 373.07, 197.3 259.7, 416.79 7.21 M0.19 486.45 C115.36 353.96, 230.53 221.48, 416.79 7.21 M-0.07 492.85 C94.65 383.89, 189.36 274.94, 419.81 9.83 M-0.07 492.85 C122.84 351.45, 245.75 210.06, 419.81 9.83 M0.33 498.49 C145.57 331.41, 290.81 164.33, 421.52 13.97 M0.33 498.49 C159.71 315.14, 319.09 131.8, 421.52 13.97 M0.07 504.89 C139.22 344.82, 278.36 184.74, 423.88 17.35 M0.07 504.89 C108.89 379.7, 217.72 254.5, 423.88 17.35 M0.46 510.53 C113.61 380.37, 226.75 250.21, 424.93 22.23 M0.46 510.53 C91.69 405.58, 182.93 300.63, 424.93 22.23 M0.2 516.93 C102.8 398.9, 205.39 280.88, 425.98 27.12 M0.2 516.93 C136.17 360.52, 272.13 204.11, 425.98 27.12 M-0.06 523.33 C110.07 396.63, 220.2 269.94, 426.38 32.77 M-0.06 523.33 C141.29 360.72, 282.64 198.12, 426.38 32.77 M0.33 528.97 C121.8 389.24, 243.27 249.51, 426.77 38.41 M0.33 528.97 C138.27 370.29, 276.21 211.61, 426.77 38.41 M0.07 535.37 C162.6 348.39, 325.14 161.42, 426.51 44.81 M0.07 535.37 C167.98 342.21, 335.89 149.05, 426.51 44.81 M0.47 541.01 C143.54 376.43, 286.6 211.85, 426.25 51.2 M0.47 541.01 C120.79 402.59, 241.12 264.17, 426.25 51.2 M0.2 547.41 C85.96 448.75, 171.72 350.1, 426.64 56.85 M0.2 547.41 C122.95 406.2, 245.7 265, 426.64 56.85 M-0.06 553.81 C138.63 394.26, 277.32 234.72, 426.38 63.24 M-0.06 553.81 C119.53 416.23, 239.12 278.66, 426.38 63.24 M0.34 559.45 C123.46 417.81, 246.58 276.17, 426.78 68.89 M0.34 559.45 C94.2 451.47, 188.07 343.49, 426.78 68.89 M0.08 565.85 C144.16 400.09, 288.25 234.34, 426.51 75.29 M0.08 565.85 C158.29 383.84, 316.5 201.84, 426.51 75.29 M0.47 571.49 C136.41 415.11, 272.35 258.73, 426.25 81.68 M0.47 571.49 C92.98 465.07, 185.48 358.66, 426.25 81.68 M0.21 577.89 C134.16 423.79, 268.11 269.7, 426.65 87.33 M0.21 577.89 C119.04 441.19, 237.87 304.49, 426.65 87.33 M-0.05 584.29 C158.88 401.45, 317.82 218.62, 426.39 93.72 M-0.05 584.29 C96.44 473.29, 192.93 362.29, 426.39 93.72 M0.34 589.93 C149.05 418.86, 297.76 247.79, 426.78 99.37 M0.34 589.93 C127.44 443.72, 254.53 297.52, 426.78 99.37 M0.08 596.33 C99.72 481.7, 199.37 367.08, 426.52 105.76 M0.08 596.33 C91.53 491.13, 182.98 385.93, 426.52 105.76 M0.48 601.97 C167.03 410.37, 333.59 218.76, 426.26 112.16 M0.48 601.97 C168.28 408.93, 336.09 215.89, 426.26 112.16 M0.21 608.37 C124.51 465.38, 248.81 322.39, 426.65 117.81 M0.21 608.37 C115.11 476.2, 230 344.03, 426.65 117.81 M-0.05 614.76 C147.36 445.19, 294.77 275.62, 426.39 124.2 M-0.05 614.76 C128.81 466.54, 257.66 318.31, 426.39 124.2 M0.35 620.41 C102.76 502.59, 205.18 384.77, 426.79 129.85 M0.35 620.41 C127.91 473.67, 255.47 326.92, 426.79 129.85 M0.09 626.81 C158.32 444.78, 316.55 262.76, 426.52 136.24 M0.09 626.81 C97.22 515.07, 194.35 403.33, 426.52 136.24 M0.48 632.45 C161.62 447.08, 322.75 261.72, 426.26 142.64 M0.48 632.45 C141.76 469.92, 283.04 307.4, 426.26 142.64 M0.22 638.85 C162.64 452, 325.06 265.16, 426.66 148.29 M0.22 638.85 C148.13 468.69, 296.04 298.54, 426.66 148.29 M-0.04 645.24 C132.02 493.32, 264.09 341.4, 426.4 154.68 M-0.04 645.24 C92.08 539.27, 184.21 433.29, 426.4 154.68 M0.35 650.89 C146.79 482.43, 293.22 313.98, 426.79 160.33 M0.35 650.89 C130.68 500.96, 261.01 351.03, 426.79 160.33 M0.09 657.29 C103.29 538.57, 206.49 419.85, 426.53 166.72 M0.09 657.29 C136.83 499.98, 273.58 342.67, 426.53 166.72 M0.49 662.93 C162.92 476.07, 325.36 289.21, 426.27 173.12 M0.49 662.93 C136.99 505.9, 273.5 348.86, 426.27 173.12 M1.54 667.82 C124.03 526.9, 246.52 385.99, 426.66 178.76 M1.54 667.82 C101.39 552.94, 201.25 438.07, 426.66 178.76 M3.24 671.95 C118.69 539.14, 234.14 406.33, 426.4 185.16 M3.24 671.95 C121.15 536.32, 239.05 400.68, 426.4 185.16 M4.29 676.84 C158.74 499.17, 313.18 321.5, 426.8 190.81 M4.29 676.84 C117.61 546.48, 230.92 416.13, 426.8 190.81 M7.31 679.46 C153.9 510.83, 300.5 342.19, 426.53 197.2 M7.31 679.46 C106.61 565.23, 205.91 451, 426.53 197.2 M9.67 682.84 C133.15 540.8, 256.63 398.76, 426.27 203.6 M9.67 682.84 C155.66 514.91, 301.64 346.97, 426.27 203.6 M13.35 684.71 C178.28 494.99, 343.2 305.26, 426.67 209.24 M13.35 684.71 C146.76 531.24, 280.17 377.77, 426.67 209.24 M17.02 686.58 C142.9 541.77, 268.78 396.97, 426.41 215.64 M17.02 686.58 C152.8 530.39, 288.57 374.2, 426.41 215.64 M21.36 687.7 C168.35 518.59, 315.35 349.49, 426.8 221.29 M21.36 687.7 C116.29 578.49, 211.21 469.29, 426.8 221.29 M25.69 688.81 C158.11 536.47, 290.54 384.14, 426.54 227.68 M25.69 688.81 C138.87 558.61, 252.04 428.42, 426.54 227.68 M30.67 689.17 C124.29 581.48, 217.9 473.79, 426.28 234.08 M30.67 689.17 C164.8 534.88, 298.92 380.58, 426.28 234.08 M36.32 688.78 C153.9 553.52, 271.47 418.26, 426.67 239.72 M36.32 688.78 C189.82 512.19, 343.33 335.6, 426.67 239.72 M41.3 689.14 C184.68 524.2, 328.06 359.26, 426.41 246.12 M41.3 689.14 C186.06 522.61, 330.81 356.09, 426.41 246.12 M46.95 688.74 C146.07 574.72, 245.18 460.69, 426.8 251.76 M46.95 688.74 C151.56 568.4, 256.18 448.05, 426.8 251.76 M51.93 689.1 C192.52 527.37, 333.11 365.64, 426.54 258.16 M51.93 689.1 C184.32 536.81, 316.7 384.52, 426.54 258.16 M57.58 688.71 C151.64 580.5, 245.7 472.29, 426.28 264.56 M57.58 688.71 C153.51 578.34, 249.45 467.98, 426.28 264.56 M62.56 689.07 C137.59 602.76, 212.61 516.46, 426.68 270.2 M62.56 689.07 C153.81 584.11, 245.05 479.14, 426.68 270.2 M68.21 688.67 C152.04 592.24, 235.87 495.8, 426.42 276.6 M68.21 688.67 C175.42 565.33, 282.64 441.99, 426.42 276.6 M73.19 689.03 C172.09 575.27, 270.98 461.51, 426.81 282.24 M73.19 689.03 C185.22 560.16, 297.25 431.28, 426.81 282.24 M78.84 688.64 C201.44 547.59, 324.05 406.55, 426.55 288.64 M78.84 688.64 C170.89 582.74, 262.95 476.84, 426.55 288.64 M83.82 689 C209.15 544.83, 334.47 400.67, 426.29 295.04 M83.82 689 C211.12 542.56, 338.42 396.11, 426.29 295.04 M88.81 689.36 C180.21 584.21, 271.61 479.07, 426.68 300.68 M88.81 689.36 C172.88 592.65, 256.94 495.94, 426.68 300.68 M94.45 688.96 C190.52 578.46, 286.58 467.95, 426.42 307.08 M94.45 688.96 C195.79 572.38, 297.14 455.8, 426.42 307.08 M99.44 689.32 C181.97 594.39, 264.49 499.45, 426.81 312.72 M99.44 689.32 C185.91 589.86, 272.37 490.39, 426.81 312.72 M105.08 688.93 C178.75 604.19, 252.41 519.45, 426.55 319.12 M105.08 688.93 C226.52 549.23, 347.96 409.53, 426.55 319.12 M110.07 689.29 C194.29 592.41, 278.5 495.53, 426.29 325.52 M110.07 689.29 C218.73 564.29, 327.39 439.3, 426.29 325.52 M115.71 688.89 C183.85 610.52, 251.98 532.14, 426.69 331.16 M115.71 688.89 C215.15 574.51, 314.59 460.12, 426.69 331.16 M120.7 689.25 C208.43 588.34, 296.15 487.42, 426.42 337.56 M120.7 689.25 C194.24 604.66, 267.78 520.06, 426.42 337.56 M126.34 688.86 C200.8 603.21, 275.25 517.56, 426.82 343.2 M126.34 688.86 C196.11 608.6, 265.87 528.35, 426.82 343.2 M131.33 689.22 C247.16 555.98, 362.98 422.73, 426.56 349.6 M131.33 689.22 C228.3 577.67, 325.27 466.12, 426.56 349.6 M136.97 688.83 C240.68 569.52, 344.39 450.22, 426.3 356 M136.97 688.83 C219.79 593.56, 302.61 498.29, 426.3 356 M141.96 689.19 C217.58 602.2, 293.19 515.21, 426.69 361.64 M141.96 689.19 C227.73 590.52, 313.5 491.86, 426.69 361.64 M147.6 688.79 C244.92 576.84, 342.24 464.89, 426.43 368.04 M147.6 688.79 C209.91 617.11, 272.22 545.44, 426.43 368.04 M152.59 689.15 C233.34 596.26, 314.08 503.38, 426.82 373.68 M152.59 689.15 C227.47 603.01, 302.35 516.87, 426.82 373.68 M158.23 688.76 C231.25 604.76, 304.27 520.77, 426.56 380.08 M158.23 688.76 C226.85 609.83, 295.46 530.9, 426.56 380.08 M163.22 689.12 C234.62 606.99, 306.01 524.85, 426.3 386.48 M163.22 689.12 C236.47 604.86, 309.71 520.6, 426.3 386.48 M168.86 688.72 C255.24 589.36, 341.62 489.99, 426.7 392.12 M168.86 688.72 C263 580.44, 357.13 472.15, 426.7 392.12 M173.85 689.08 C248 603.79, 322.14 518.49, 426.43 398.52 M173.85 689.08 C267.85 580.95, 361.84 472.83, 426.43 398.52 M179.49 688.69 C278.1 575.26, 376.7 461.83, 426.17 404.92 M179.49 688.69 C229.84 630.77, 280.19 572.85, 426.17 404.92 M184.48 689.05 C248.1 615.87, 311.71 542.69, 426.57 410.56 M184.48 689.05 C264.21 597.33, 343.93 505.62, 426.57 410.56 M190.12 688.65 C256.94 611.79, 323.75 534.93, 426.31 416.96 M190.12 688.65 C283.54 581.19, 376.96 473.73, 426.31 416.96 M195.11 689.01 C284.4 586.29, 373.7 483.58, 426.7 422.6 M195.11 689.01 C275.11 596.99, 355.11 504.96, 426.7 422.6 M200.1 689.37 C258.02 622.74, 315.95 556.11, 426.44 429 M200.1 689.37 C252.71 628.85, 305.32 568.33, 426.44 429 M205.74 688.98 C265.95 619.72, 326.16 550.45, 426.18 435.4 M205.74 688.98 C279.85 603.73, 353.96 518.47, 426.18 435.4 M210.73 689.34 C285.16 603.72, 359.58 518.1, 426.57 441.04 M210.73 689.34 C292.37 595.42, 374.02 501.5, 426.57 441.04 M216.37 688.94 C267.05 630.65, 317.72 572.36, 426.31 447.44 M216.37 688.94 C266.27 631.54, 316.17 574.14, 426.31 447.44 M221.36 689.3 C268.66 634.89, 315.96 580.47, 426.71 453.08 M221.36 689.3 C296.65 602.69, 371.95 516.07, 426.71 453.08 M227 688.91 C269.06 640.53, 311.11 592.15, 426.44 459.48 M227 688.91 C288.08 618.65, 349.16 548.39, 426.44 459.48 M231.99 689.27 C299.56 611.54, 367.12 533.82, 426.18 465.88 M231.99 689.27 C290.59 621.86, 349.18 554.45, 426.18 465.88 M237.63 688.88 C276.72 643.91, 315.81 598.94, 426.58 471.52 M237.63 688.88 C278.93 641.37, 320.23 593.85, 426.58 471.52 M242.62 689.24 C313.84 607.31, 385.05 525.39, 426.32 477.92 M242.62 689.24 C308.34 613.63, 374.07 538.02, 426.32 477.92 M248.26 688.84 C294.55 635.6, 340.83 582.35, 426.71 483.56 M248.26 688.84 C314.59 612.54, 380.92 536.24, 426.71 483.56 M253.25 689.2 C321.56 610.62, 389.87 532.04, 426.45 489.96 M253.25 689.2 C301.66 633.52, 350.06 577.83, 426.45 489.96 M258.89 688.81 C309.58 630.5, 360.27 572.19, 426.19 496.36 M258.89 688.81 C322.95 615.12, 387 541.43, 426.19 496.36 M263.88 689.17 C307.41 639.09, 350.94 589.01, 426.58 502 M263.88 689.17 C309.72 636.43, 355.57 583.69, 426.58 502 M269.52 688.77 C312.96 638.8, 356.4 588.83, 426.32 508.4 M269.52 688.77 C330.64 618.47, 391.75 548.16, 426.32 508.4 M274.51 689.13 C314.29 643.37, 354.06 597.62, 426.72 514.04 M274.51 689.13 C327.77 627.86, 381.03 566.59, 426.72 514.04 M280.15 688.74 C313.16 650.77, 346.16 612.81, 426.45 520.44 M280.15 688.74 C331.4 629.78, 382.65 570.82, 426.45 520.44 M285.14 689.1 C325.28 642.92, 365.43 596.73, 426.19 526.83 M285.14 689.1 C333.04 634, 380.94 578.9, 426.19 526.83 M290.78 688.7 C344.74 626.64, 398.69 564.57, 426.59 532.48 M290.78 688.7 C337.33 635.16, 383.87 581.62, 426.59 532.48 M295.77 689.06 C322 658.89, 348.23 628.71, 426.33 538.88 M295.77 689.06 C331.88 647.52, 367.99 605.98, 426.33 538.88 M301.41 688.67 C344.72 638.85, 388.02 589.04, 426.72 544.52 M301.41 688.67 C334.69 650.39, 367.97 612.1, 426.72 544.52 M306.4 689.03 C345.84 643.66, 385.28 598.29, 426.46 550.92 M306.4 689.03 C337.28 653.51, 368.16 617.99, 426.46 550.92 M312.04 688.63 C338.13 658.63, 364.21 628.62, 426.2 557.31 M312.04 688.63 C350.6 644.28, 389.15 599.93, 426.2 557.31 M317.03 688.99 C354.31 646.11, 391.59 603.22, 426.59 562.96 M317.03 688.99 C355.15 645.14, 393.27 601.29, 426.59 562.96 M322.02 689.35 C354.23 652.29, 386.45 615.23, 426.33 569.36 M322.02 689.35 C363.58 641.54, 405.14 593.73, 426.33 569.36 M327.66 688.96 C363.71 647.49, 399.75 606.02, 426.72 575 M327.66 688.96 C355.95 656.41, 384.25 623.87, 426.72 575 M332.65 689.32 C356.48 661.9, 380.32 634.48, 426.46 581.4 M332.65 689.32 C352.07 666.97, 371.5 644.62, 426.46 581.4 M338.29 688.92 C363.04 660.45, 387.8 631.97, 426.2 587.79 M338.29 688.92 C371.47 650.76, 404.64 612.59, 426.2 587.79 M343.28 689.29 C362.97 666.63, 382.66 643.98, 426.6 593.44 M343.28 689.29 C371.9 656.36, 400.53 623.43, 426.6 593.44 M348.92 688.89 C366.76 668.37, 384.59 647.86, 426.34 599.83 M348.92 688.89 C364.46 671.01, 380 653.13, 426.34 599.83 M353.91 689.25 C370.83 669.78, 387.76 650.31, 426.73 605.48 M353.91 689.25 C376.33 663.45, 398.76 637.65, 426.73 605.48 M359.55 688.86 C379.76 665.61, 399.96 642.37, 426.47 611.88 M359.55 688.86 C379.86 665.49, 400.17 642.13, 426.47 611.88 M364.54 689.22 C384.51 666.24, 404.48 643.26, 426.21 618.27 M364.54 689.22 C378.15 673.56, 391.76 657.9, 426.21 618.27 M370.18 688.82 C383.87 673.07, 397.56 657.32, 426.6 623.92 M370.18 688.82 C387.31 669.11, 404.45 649.4, 426.6 623.92 M375.17 689.18 C395.48 665.82, 415.79 642.45, 426.34 630.31 M375.17 689.18 C391.68 670.19, 408.18 651.2, 426.34 630.31 M380.81 688.79 C397.05 670.11, 413.29 651.43, 426.73 635.96 M380.81 688.79 C398.71 668.2, 416.6 647.61, 426.73 635.96 M385.8 689.15 C395.66 677.8, 405.52 666.46, 426.47 642.36 M385.8 689.15 C396.97 676.3, 408.14 663.44, 426.47 642.36 M391.44 688.75 C405.01 673.14, 418.59 657.52, 426.21 648.75 M391.44 688.75 C399.1 679.94, 406.76 671.13, 426.21 648.75 M396.43 689.11 C404.15 680.23, 411.88 671.34, 426.61 654.4 M396.43 689.11 C404.22 680.15, 412.01 671.18, 426.61 654.4 M402.07 688.72 C408.47 681.36, 414.87 674, 426.34 660.79 M402.07 688.72 C407.52 682.45, 412.97 676.18, 426.34 660.79 M408.37 687.57 C413.91 681.19, 419.45 674.82, 424.77 668.7 M408.37 687.57 C412.88 682.38, 417.39 677.19, 424.77 668.7" stroke="#ffec99" stroke-width="0.5" fill="none"></path><path d="M32 0 C174.8 0, 317.6 0, 393.78 0 M393.78 0 C415.11 0, 425.78 10.67, 425.78 32 M425.78 32 C425.78 257.77, 425.78 483.55, 425.78 656.89 M425.78 656.89 C425.78 678.22, 415.11 688.89, 393.78 688.89 M393.78 688.89 C278.59 688.89, 163.4 688.89, 32 688.89 M32 688.89 C10.67 688.89, 0 678.22, 0 656.89 M0 656.89 C0 528.85, 0 400.8, 0 32 M0 32 C0 10.67, 10.67 0, 32 0" stroke="#1971c2" stroke-width="1.5" fill="none" stroke-dasharray="1.5 7"></path></g><g stroke-linecap="round" transform="translate(26.066569010416572 266.2888217502169) rotate(0 170.39999389648438 111.5999984741211)"><path d="M32 0 C87.41 -1.41, 146.24 0.38, 308.8 0 C333.25 -3.18, 342.92 7.71, 340.8 32 C339.3 89.56, 343.23 152.89, 340.8 191.2 C338.88 209.83, 328.1 220.41, 308.8 223.2 C195.97 226.29, 89.02 228.7, 32 223.2 C10.72 226.57, -0.9 209.4, 0 191.2 C-2.46 154.3, -4.79 120.48, 0 32 C3.55 7.13, 13.49 -1.98, 32 0" stroke="none" stroke-width="0" fill="#b2f2bb"></path><path d="M32 0 C102.72 0.31, 171.82 1.53, 308.8 0 M308.8 0 C330.97 0.85, 342.21 11.62, 340.8 32 M340.8 32 C341.29 72.48, 342.44 108.73, 340.8 191.2 M340.8 191.2 C341.08 210.8, 331.72 224.63, 308.8 223.2 M308.8 223.2 C223.79 223.55, 138.72 224.04, 32 223.2 M32 223.2 C10.91 222.76, -0.81 212.48, 0 191.2 M0 191.2 C3.22 139.67, 0.33 90.67, 0 32 M0 32 C1.92 12.47, 12.17 -1.88, 32 0" stroke="#1e1e1e" stroke-width="2.5" fill="none" stroke-dasharray="8 10"></path></g><g transform="translate(84.9110921223957 211.31102498372388) rotate(0 112.53596496582031 22.5)"><text x="0" y="31.536" font-family="Virgil, Segoe UI Emoji" font-size="36px" fill="#1e1e1e" text-anchor="start" style="white-space: pre;" direction="ltr" dominant-baseline="alphabetic">Manage node</text></g><g stroke-linecap="round" transform="translate(33.99993896484381 402.88883633083765) rotate(0 163.55553521050342 40)"><path d="M20 0 C107.8 -5.09, 195.77 -6.39, 307.11 0 C315.77 4.61, 321.85 2.21, 327.11 20 C327.48 28.6, 329.62 37.99, 327.11 60 C325.77 71.26, 323.35 80.7, 307.11 80 C199.15 82.36, 90.24 78.37, 20 80 C5.33 74.54, -2 75.87, 0 60 C2.64 43.09, 2.04 36.57, 0 20 C-3.93 8.14, 3.13 0.1, 20 0" stroke="none" stroke-width="0" fill="#b2f2bb"></path><path d="M20 0 C123.76 -5.43, 228.62 -3.16, 307.11 0 M307.11 0 C319.05 -1.52, 328.32 3.43, 327.11 20 M327.11 20 C324.01 26.66, 327.51 39.72, 327.11 60 M327.11 60 C327.44 74.1, 318.64 79.97, 307.11 80 M307.11 80 C238.78 80.5, 170.38 80.38, 20 80 M20 80 C8.76 76.07, 1.15 74.68, 0 60 M0 60 C-3.9 48.28, -3.03 32.6, 0 20 M0 20 C-2.33 9.74, 6.68 1.32, 20 0" stroke="#2f9e44" stroke-width="2.5" fill="none" stroke-dasharray="8 10"></path></g><g transform="translate(95.33321804470489 415.33329433865015) rotate(0 94.84196472167969 22.5)"><text x="0" y="31.536" font-family="Virgil, Segoe UI Emoji" font-size="36px" fill="#1e1e1e" text-anchor="start" style="white-space: pre;" direction="ltr" dominant-baseline="alphabetic">Rocky linux</text></g><g transform="translate(49.999898274739564 286.1110348171657) rotate(0 148.42794799804688 35)"><text x="0" y="24.528" font-family="Virgil, Segoe UI Emoji" font-size="28px" fill="#1e1e1e" text-anchor="start" style="white-space: pre;" direction="ltr" dominant-baseline="alphabetic">Hostname: manage-aio</text><text x="0" y="59.528" font-family="Virgil, Segoe UI Emoji" font-size="28px" fill="#1e1e1e" text-anchor="start" style="white-space: pre;" direction="ltr" dominant-baseline="alphabetic">Ip: 172.16.194.130</text></g><g transform="translate(118.44441731770812 145.11113908555762) rotate(0 81.57797241210936 17.5)"><text x="0" y="24.528" font-family="Virgil, Segoe UI Emoji" font-size="28px" fill="#1971c2" text-anchor="start" style="white-space: pre;" direction="ltr" dominant-baseline="alphabetic">Management</text></g><g transform="translate(690.0000339084197 10) rotate(0 45.905982971191406 17.5)"><text x="0" y="24.528" font-family="Virgil, Segoe UI Emoji" font-size="28px" fill="#1971c2" text-anchor="start" style="white-space: pre;" direction="ltr" dominant-baseline="alphabetic">Agents</text></g><g stroke-linecap="round" transform="translate(551.6222601996528 128.73331366644948) rotate(0 170.39999389648438 111.5999984741211)"><path d="M32 0 C97.67 -0.98, 163.85 2.33, 308.8 0 C331.09 2.46, 343.39 13.92, 340.8 32 C343.66 79.42, 343.3 132.39, 340.8 191.2 C340.67 215.49, 330.16 220.61, 308.8 223.2 C250.81 218.82, 191.1 217.56, 32 223.2 C9.91 225.46, -2.56 214.29, 0 191.2 C5.45 157.8, 2.7 119.01, 0 32 C-2.43 10.9, 9.03 -1.56, 32 0" stroke="none" stroke-width="0" fill="#b2f2bb"></path><path d="M32 0 C96.62 -1.36, 163.97 0.42, 308.8 0 M308.8 0 C329.94 -0.7, 339.73 9.55, 340.8 32 M340.8 32 C340.27 79.41, 337.95 128.35, 340.8 191.2 M340.8 191.2 C341.95 212.3, 330.88 222.2, 308.8 223.2 M308.8 223.2 C240.32 223.45, 169.92 224.16, 32 223.2 M32 223.2 C9.5 224.26, 1.27 213.83, 0 191.2 M0 191.2 C-0.63 146.53, 1.98 102.12, 0 32 M0 32 C-0.45 10.9, 10.14 0.27, 32 0" stroke="#1e1e1e" stroke-width="2.5" fill="none" stroke-dasharray="8 10"></path></g><g stroke-linecap="round" transform="translate(549.177734375 493.3999599880641) rotate(0 170.39999389648438 111.5999984741211)"><path d="M32 0 C130.21 -2.15, 235.34 2.63, 308.8 0 C329.62 -1.65, 341.62 8.02, 340.8 32 C339.08 84.99, 339.84 131.1, 340.8 191.2 C342.53 209.94, 330.39 222.17, 308.8 223.2 C201.33 221.61, 97.52 220.26, 32 223.2 C8.06 225.61, 3.03 209.6, 0 191.2 C-5.25 139.74, -1.88 90.69, 0 32 C-2.76 11.17, 13.05 0.38, 32 0" stroke="none" stroke-width="0" fill="#b2f2bb"></path><path d="M32 0 C95.13 -1.19, 158.99 -1.08, 308.8 0 M308.8 0 C329.94 0.45, 340.71 10.28, 340.8 32 M340.8 32 C340.55 80.43, 339.42 130.02, 340.8 191.2 M340.8 191.2 C342.59 211.85, 328.73 223.6, 308.8 223.2 M308.8 223.2 C214.15 223.66, 116.55 225.63, 32 223.2 M32 223.2 C12.65 222.58, 1.61 213.19, 0 191.2 M0 191.2 C0.03 141.42, -0.87 93.94, 0 32 M0 32 C0.8 11.63, 10.69 0.98, 32 0" stroke="#1e1e1e" stroke-width="2.5" fill="none" stroke-dasharray="8 10"></path></g><g transform="translate(610.4667833116318 73.75551689995642) rotate(0 124.91996002197266 22.5)"><text x="0" y="31.536" font-family="Virgil, Segoe UI Emoji" font-size="36px" fill="#1e1e1e" text-anchor="start" style="white-space: pre;" direction="ltr" dominant-baseline="alphabetic">Load balancer</text></g><g transform="translate(698.68896484375 441.97773234049464) rotate(0 29.555984497070312 22.5)"><text x="29.555984497070312" y="31.536" font-family="Virgil, Segoe UI Emoji" font-size="36px" fill="#1e1e1e" text-anchor="middle" style="white-space: pre;" direction="ltr" dominant-baseline="alphabetic">App</text></g><g stroke-linecap="round" transform="translate(559.5556301540801 265.3333282470701) rotate(0 163.55553521050342 40)"><path d="M20 0 C112.72 5.42, 199.4 4.15, 307.11 0 C324.48 5.05, 327.96 8.14, 327.11 20 C330.49 32.97, 327.57 50.41, 327.11 60 C327.15 69.31, 315.81 75.84, 307.11 80 C248.2 73.42, 180.51 79.9, 20 80 C2.69 82.73, -4.7 68.6, 0 60 C-0.5 43.4, -4.72 37.83, 0 20 C-2.54 4.24, 5.64 0.07, 20 0" stroke="none" stroke-width="0" fill="#b2f2bb"></path><path d="M20 0 C113.28 4.17, 206.69 1.22, 307.11 0 M307.11 0 C318.31 -2.24, 327 4.38, 327.11 20 M327.11 20 C323.38 33.59, 329.56 39.99, 327.11 60 M327.11 60 C328.6 71.34, 318.4 77.36, 307.11 80 M307.11 80 C216.28 81.68, 128.02 81.76, 20 80 M20 80 C9.21 82.59, -0.93 71.2, 0 60 M0 60 C2.85 48.58, -0.3 41.46, 0 20 M0 20 C-1.05 7.21, 4.02 -2.01, 20 0" stroke="#2f9e44" stroke-width="2.5" fill="none" stroke-dasharray="8 10"></path></g><g stroke-linecap="round" transform="translate(557.1111043294272 629.9999745686847) rotate(0 163.55553521050342 40)"><path d="M20 0 C105.94 8.95, 185.77 3.61, 307.11 0 C321.72 -4.12, 327.92 6.75, 327.11 20 C325 29.38, 329.25 37.9, 327.11 60 C327.5 71.73, 325.02 82.84, 307.11 80 C230.11 76.56, 149.97 82.01, 20 80 C11.38 75.44, 1.17 78.85, 0 60 C2.23 48.16, -3.53 31.91, 0 20 C3.7 7.25, 9.7 -1.2, 20 0" stroke="none" stroke-width="0" fill="#b2f2bb"></path><path d="M20 0 C103.08 1.39, 186.59 4.58, 307.11 0 M307.11 0 C320.27 -0.78, 327.65 4.46, 327.11 20 M327.11 20 C326.35 25.78, 330.95 37.48, 327.11 60 M327.11 60 C324.3 74.12, 322.3 81.18, 307.11 80 M307.11 80 C206.01 81.08, 109.95 77.43, 20 80 M20 80 C9.89 81.31, 0.04 72.05, 0 60 M0 60 C-2.56 44, 1.79 35.46, 0 20 M0 20 C0.04 8.62, 9.23 2.18, 20 0" stroke="#2f9e44" stroke-width="2.5" fill="none" stroke-dasharray="8 10"></path></g><g transform="translate(620.8889092339411 277.7777862548826) rotate(0 94.84196472167969 22.5)"><text x="0" y="31.536" font-family="Virgil, Segoe UI Emoji" font-size="36px" fill="#1e1e1e" text-anchor="start" style="white-space: pre;" direction="ltr" dominant-baseline="alphabetic">Rocky linux</text></g><g transform="translate(618.4443834092883 642.4444325764972) rotate(0 94.84196472167969 22.5)"><text x="0" y="31.536" font-family="Virgil, Segoe UI Emoji" font-size="36px" fill="#1e1e1e" text-anchor="start" style="white-space: pre;" direction="ltr" dominant-baseline="alphabetic">Rocky linux</text></g><g transform="translate(575.5555894639758 148.5555267333982) rotate(0 108.8779525756836 35)"><text x="0" y="24.528" font-family="Virgil, Segoe UI Emoji" font-size="28px" fill="#1e1e1e" text-anchor="start" style="white-space: pre;" direction="ltr" dominant-baseline="alphabetic">Hostname: lb01</text><text x="0" y="59.528" font-family="Virgil, Segoe UI Emoji" font-size="28px" fill="#1e1e1e" text-anchor="start" style="white-space: pre;" direction="ltr" dominant-baseline="alphabetic">Ip: 172.16.194.131</text></g><g transform="translate(573.111063639323 513.2221730550128) rotate(0 115.05194854736328 35)"><text x="0" y="24.528" font-family="Virgil, Segoe UI Emoji" font-size="28px" fill="#1e1e1e" text-anchor="start" style="white-space: pre;" direction="ltr" dominant-baseline="alphabetic">Hostname: app01</text><text x="0" y="59.528" font-family="Virgil, Segoe UI Emoji" font-size="28px" fill="#1e1e1e" text-anchor="start" style="white-space: pre;" direction="ltr" dominant-baseline="alphabetic">Ip: 172.16.194.132</text></g><g stroke-linecap="round"><g transform="translate(366.44432915581604 479.33331807454425) rotate(0 93.33333333333334 62.22225613064242)"><path d="M0 0 C31.11 20.74, 155.56 103.7, 186.67 124.44 M0 0 C31.11 20.74, 155.56 103.7, 186.67 124.44" stroke="#1971c2" stroke-width="4" fill="none"></path></g><g transform="translate(366.44432915581604 479.33331807454425) rotate(0 93.33333333333334 62.22225613064242)"><path d="M162.38 118.53 C170.14 120.42, 177.91 122.31, 186.67 124.44 M162.38 118.53 C168.64 120.05, 174.91 121.58, 186.67 124.44" stroke="#1971c2" stroke-width="4" fill="none"></path></g><g transform="translate(366.44432915581604 479.33331807454425) rotate(0 93.33333333333334 62.22225613064242)"><path d="M171.86 104.3 C176.6 110.74, 181.33 117.18, 186.67 124.44 M171.86 104.3 C175.68 109.5, 179.5 114.7, 186.67 124.44" stroke="#1971c2" stroke-width="4" fill="none"></path></g></g><mask></mask><g stroke-linecap="round"><g transform="translate(370.8888414171007 308.66667853461365) rotate(0 90.22220187717014 -43.11109754774304)"><path d="M0 0 C30.07 -14.37, 150.37 -71.85, 180.44 -86.22 M0 0 C30.07 -14.37, 150.37 -71.85, 180.44 -86.22" stroke="#1971c2" stroke-width="4" fill="none"></path></g><g transform="translate(370.8888414171007 308.66667853461365) rotate(0 90.22220187717014 -43.11109754774304)"><path d="M162.93 -68.38 C167.37 -72.9, 171.81 -77.42, 180.44 -86.22 M162.93 -68.38 C169.78 -75.35, 176.63 -82.33, 180.44 -86.22" stroke="#1971c2" stroke-width="4" fill="none"></path></g><g transform="translate(370.8888414171007 308.66667853461365) rotate(0 90.22220187717014 -43.11109754774304)"><path d="M155.56 -83.81 C161.87 -84.42, 168.18 -85.03, 180.44 -86.22 M155.56 -83.81 C165.29 -84.75, 175.02 -85.7, 180.44 -86.22" stroke="#1971c2" stroke-width="4" fill="none"></path></g></g><mask></mask><g stroke-linecap="round"><g transform="translate(840.2222018771702 346.88892788357197) rotate(0 0.4444037543402146 76.44444783528644)"><path d="M0 0 C0.15 25.48, 0.74 127.41, 0.89 152.89 M0 0 C0.15 25.48, 0.74 127.41, 0.89 152.89" stroke="#1971c2" stroke-width="4" fill="none"></path></g><g transform="translate(840.2222018771702 346.88892788357197) rotate(0 0.4444037543402146 76.44444783528644)"><path d="M-7.8 129.45 C-4.82 137.49, -1.84 145.52, 0.89 152.89 M-7.8 129.45 C-5.67 135.18, -3.55 140.91, 0.89 152.89" stroke="#1971c2" stroke-width="4" fill="none"></path></g><g transform="translate(840.2222018771702 346.88892788357197) rotate(0 0.4444037543402146 76.44444783528644)"><path d="M9.3 129.35 C6.42 137.42, 3.53 145.49, 0.89 152.89 M9.3 129.35 C7.24 135.1, 5.19 140.86, 0.89 152.89" stroke="#1971c2" stroke-width="4" fill="none"></path></g></g><mask></mask><g transform="translate(855.6060172186958 404.66667175292963) rotate(0 58.39398956298828 17.5)"><text x="58.39398956298828" y="24.528" font-family="Virgil, Segoe UI Emoji" font-size="28px" fill="#1971c2" text-anchor="middle" style="white-space: pre;" direction="ltr" dominant-baseline="alphabetic">80, 443</text></g></svg>